<svg width="77" height="88" viewBox="0 0 77 88" fill="none" xmlns="http://www.w3.org/2000/svg">
    <path d="M73.9204 14.4215C73.9489 14.4504 73.9489 14.4792 73.9774 14.508C73.9489 14.4792 73.9489 14.4504 73.9204 14.4215Z"
          fill="url(#paint0_linear)" stroke="#98A9BC" stroke-width="2" stroke-miterlimit="10"/>
    <path d="M73.8638 14.335C73.8923 14.3638 73.8923 14.3926 73.9208 14.4215C73.8923 14.3926 73.8638 14.3638 73.8638 14.335Z"
          fill="url(#paint1_linear)" stroke="#98A9BC" stroke-width="2" stroke-miterlimit="10"/>
    <path d="M73.379 16.527V66.5119C73.379 68.9347 71.4405 70.8672 69.0743 70.8672H26.5405C24.1458 70.8672 22.2358 68.9059 22.2358 66.5119V7.12415C22.2358 4.70134 24.1743 2.76886 26.5405 2.76886H60.864C60.864 2.5958 60.921 2.42274 61.0351 2.30737C61.2917 2.04778 61.6908 2.04778 61.9473 2.30737L73.8066 14.3061L61.9473 2.27853C61.8333 2.16315 61.6623 2.10547 61.4912 2.10547H26.5405C23.8037 2.10547 21.5801 4.35522 21.5801 7.12415V66.5119C21.5801 69.2808 23.8037 71.5306 26.5405 71.5306H69.0458C71.7826 71.5306 74.0062 69.2808 74.0062 66.5119V16.1232C73.8922 16.3539 73.6641 16.527 73.379 16.527Z"
          fill="url(#paint2_linear)" stroke="#98A9BC" stroke-width="2" stroke-miterlimit="10"/>
    <path d="M26.5405 2.7688C24.1459 2.7688 22.2358 4.73012 22.2358 7.12409V66.5118C22.2358 68.9346 24.1744 70.8671 26.5405 70.8671H69.0459C71.4406 70.8671 73.3506 68.9058 73.3506 66.5118V16.5269H72.6949V66.5118C72.6949 68.5597 71.0415 70.2326 69.0174 70.2326H26.5405C24.5165 70.2326 22.863 68.5597 22.863 66.5118V7.12409C22.863 5.07624 24.5165 3.40334 26.5405 3.40334H60.8641V2.7688H26.5405Z"
          fill="white" stroke="#98A9BC" stroke-width="2" stroke-miterlimit="10"/>
    <path d="M26.5405 2.7688C24.1459 2.7688 22.2358 4.73012 22.2358 7.12409V66.5118C22.2358 68.9346 24.1744 70.8671 26.5405 70.8671H69.0459C71.4406 70.8671 73.3506 68.9058 73.3506 66.5118V16.5269H72.6949V66.5118C72.6949 68.5597 71.0415 70.2326 69.0174 70.2326H26.5405C24.5165 70.2326 22.863 68.5597 22.863 66.5118V7.12409C22.863 5.07624 24.5165 3.40334 26.5405 3.40334H60.8641V2.7688H26.5405Z"
          fill="#98A9BC" stroke="#98A9BC" stroke-width="2" stroke-miterlimit="10"/>
    <path d="M73.3789 15.431H64.741C62.6029 15.431 60.8639 13.6715 60.8639 11.5083V3.83609V3.40344H26.5403C24.5163 3.40344 22.8628 5.07634 22.8628 7.12419V66.5119C22.8628 68.5598 24.5163 70.2327 26.5403 70.2327H69.0457C71.0698 70.2327 72.7232 68.5598 72.7232 66.5119V16.527H73.3789C73.6355 16.527 73.8921 16.3828 74.0061 16.1232C74.0061 16.1232 74.0061 16.1232 74.0061 16.0944V14.7676C74.0346 15.1425 73.7495 15.431 73.3789 15.431ZM32.698 14.5368C32.7266 14.5368 32.7266 14.5368 32.7551 14.5368H55.9035C56.2741 14.5657 56.5307 14.8541 56.5307 15.2291C56.5307 15.5752 56.2456 15.8348 55.9035 15.8636H32.8121C32.4415 15.8925 32.1279 15.6329 32.0994 15.2579C32.0709 14.883 32.3274 14.5657 32.698 14.5368ZM32.698 39.4283C32.7266 39.4283 32.7266 39.4283 32.7551 39.4283H62.8025C63.1731 39.4572 63.4296 39.7745 63.4011 40.1206C63.3726 40.4667 63.1161 40.7263 62.8025 40.7263H32.8121C32.4415 40.7551 32.1279 40.4955 32.0994 40.1206C32.0709 39.7745 32.3274 39.4572 32.698 39.4283ZM32.0994 31.8426C32.0709 31.4677 32.3274 31.1504 32.698 31.1216C32.7266 31.1216 32.7266 31.1216 32.7551 31.1216H62.8025C63.1731 31.1504 63.4296 31.4677 63.4011 31.8138C63.3726 32.1599 63.1161 32.4195 62.8025 32.4195H32.8121C32.4415 32.4772 32.1279 32.2176 32.0994 31.8426ZM63.4011 48.4274C63.3726 48.7735 63.1161 49.0331 62.8025 49.0331H32.8121C32.4415 49.0331 32.1564 48.7446 32.1564 48.3697C32.1564 48.0236 32.413 47.7351 32.7551 47.7063H62.8025C63.1446 47.7351 63.4296 48.0524 63.4011 48.4274ZM62.8025 57.3398H32.8121C32.4415 57.3687 32.1279 57.1091 32.0994 56.7341C32.0709 56.3592 32.3274 56.0419 32.698 56.0131C32.7266 56.0131 32.7266 56.0131 32.7551 56.0131H62.8025C63.1731 56.0419 63.4296 56.3303 63.4296 56.7053C63.4011 57.0514 63.1446 57.311 62.8025 57.3398ZM62.8025 24.1704H32.8121C32.4415 24.1992 32.1279 23.9397 32.0994 23.5647C32.0709 23.1897 32.3274 22.8725 32.698 22.8436C32.7266 22.8436 32.7266 22.8436 32.7551 22.8436H62.8025C63.1731 22.8725 63.4296 23.1609 63.4296 23.5359C63.4011 23.8531 63.1446 24.1416 62.8025 24.1704Z"
          fill="white" stroke="#98A9BC" stroke-width="2" stroke-miterlimit="10"/>
    <path d="M62.147 11.4795C62.147 12.9216 63.3158 14.1042 64.7412 14.1042H71.8112L62.147 4.32642V11.4795Z"
          fill="white" stroke="#98A9BC" stroke-width="2" stroke-miterlimit="10"/>
    <path d="M74.0062 14.7675C74.0062 14.681 73.9777 14.5945 73.9492 14.5079C74.0062 14.5945 74.0062 14.681 74.0062 14.7675Z"
          fill="url(#paint3_linear)" stroke="#98A9BC" stroke-width="2" stroke-miterlimit="10"/>
    <path d="M73.9204 14.3925C73.9204 14.422 73.9204 14.422 73.9204 14.3925C73.9204 14.422 73.9204 14.422 73.9204 14.3925Z"
          fill="url(#paint4_linear)" stroke="#98A9BC" stroke-width="2" stroke-miterlimit="10"/>
    <path d="M73.8354 14.306C73.8354 14.306 73.8355 14.3349 73.864 14.3349C73.8355 14.3349 73.8354 14.306 73.8354 14.306Z"
          fill="url(#paint5_linear)" stroke="#98A9BC" stroke-width="2" stroke-miterlimit="10"/>
    <path d="M61.0638 2.2785C61.0638 2.30734 61.0353 2.30734 61.0638 2.2785C60.9213 2.39387 60.8643 2.56693 60.8643 2.73999H61.4914L64.3707 5.65313L74.0064 14.7675C74.0064 14.681 73.9779 14.5945 73.9494 14.5368C73.9209 14.5079 73.9209 14.4791 73.8924 14.4502C73.8639 14.4214 73.8639 14.3926 73.8354 14.3637L73.8069 14.3349L61.9476 2.30734C61.7195 2.04775 61.2919 2.04775 61.0638 2.2785Z"
          fill="url(#paint6_linear)" stroke="#98A9BC" stroke-width="2" stroke-miterlimit="10"/>
    <path d="M61.0638 2.2785C61.0638 2.30734 61.0353 2.30734 61.0638 2.2785C60.9213 2.39387 60.8643 2.56693 60.8643 2.73999H61.4914L64.3707 5.65313L74.0064 14.7675C74.0064 14.681 73.9779 14.5945 73.9494 14.5368C73.9209 14.5079 73.9209 14.4791 73.8924 14.4502C73.8639 14.4214 73.8639 14.3926 73.8354 14.3637L73.8069 14.3349L61.9476 2.30734C61.7195 2.04775 61.2919 2.04775 61.0638 2.2785Z"
          fill="url(#paint7_linear)" stroke="#98A9BC" stroke-width="2" stroke-miterlimit="10"/>
    <path d="M60.8643 3.43219H61.0353L61.0638 3.40334C61.1778 3.28797 61.3489 3.23029 61.5199 3.23029V2.7688H60.8928V3.43219H60.8643Z"
          fill="white" stroke="#98A9BC" stroke-width="2" stroke-miterlimit="10"/>
    <path d="M60.8643 3.43219H61.0353L61.0638 3.40334C61.1778 3.28797 61.3489 3.23029 61.5199 3.23029V2.7688H60.8928V3.43219H60.8643Z"
          fill="url(#paint8_linear)" stroke="#98A9BC" stroke-width="2" stroke-miterlimit="10"/>
    <path d="M60.8643 3.43219H61.0353L61.0638 3.40334C61.1778 3.28797 61.3489 3.23029 61.5199 3.23029V2.7688H60.8928V3.43219H60.8643Z"
          fill="url(#paint9_linear)" stroke="#98A9BC" stroke-width="2" stroke-miterlimit="10"/>
    <path d="M74.0056 14.7675L64.3699 5.65313L61.4906 2.73999V3.17264C61.3196 3.17264 61.1771 3.23032 61.0345 3.34569L61.006 3.37454H60.835V3.80718V11.4506C60.835 13.6138 62.5739 15.3732 64.712 15.3732H73.3499C73.7491 15.4309 74.0341 15.1425 74.0056 14.7675C74.0341 14.7675 74.0341 14.7675 74.0056 14.7675ZM64.7406 14.1041C63.3152 14.1041 62.1463 12.9216 62.1463 11.4794V4.32636L71.8105 14.1041H64.7406Z"
          fill="white"/>
    <path d="M74.0056 14.7675L64.3699 5.65313L61.4906 2.73999V3.17264C61.3196 3.17264 61.1771 3.23032 61.0345 3.34569L61.006 3.37454H60.835V3.80718V11.4506C60.835 13.6138 62.5739 15.3732 64.712 15.3732H73.3499C73.7491 15.4309 74.0341 15.1425 74.0056 14.7675ZM74.0056 14.7675C74.0341 14.7675 74.0341 14.7675 74.0056 14.7675ZM64.7406 14.1041C63.3152 14.1041 62.1463 12.9216 62.1463 11.4794V4.32636L71.8105 14.1041H64.7406Z"
          stroke="#98A9BC" stroke-width="2" stroke-miterlimit="10"/>
    <path d="M74.0056 14.7675L64.3699 5.65313L61.4906 2.73999V3.17264C61.3196 3.17264 61.1771 3.23032 61.0345 3.34569L61.006 3.37454H60.835V3.80718V11.4506C60.835 13.6138 62.5739 15.3732 64.712 15.3732H73.3499C73.7491 15.4309 74.0341 15.1425 74.0056 14.7675C74.0341 14.7675 74.0341 14.7675 74.0056 14.7675ZM64.7406 14.1041C63.3152 14.1041 62.1463 12.9216 62.1463 11.4794V4.32636L71.8105 14.1041H64.7406Z"
          fill="#98A9BC"/>
    <path d="M74.0056 14.7675L64.3699 5.65313L61.4906 2.73999V3.17264C61.3196 3.17264 61.1771 3.23032 61.0345 3.34569L61.006 3.37454H60.835V3.80718V11.4506C60.835 13.6138 62.5739 15.3732 64.712 15.3732H73.3499C73.7491 15.4309 74.0341 15.1425 74.0056 14.7675ZM74.0056 14.7675C74.0341 14.7675 74.0341 14.7675 74.0056 14.7675ZM64.7406 14.1041C63.3152 14.1041 62.1463 12.9216 62.1463 11.4794V4.32636L71.8105 14.1041H64.7406Z"
          stroke="#98A9BC" stroke-width="2" stroke-miterlimit="10"/>
    <path d="M32.812 15.8635H55.9035C56.2456 15.8635 56.5021 15.5751 56.5307 15.229C56.5592 14.854 56.2741 14.5656 55.9035 14.5367H32.755C32.7265 14.5367 32.7265 14.5367 32.698 14.5367C32.3274 14.5656 32.0708 14.8829 32.0993 15.2578C32.1278 15.6039 32.4414 15.8924 32.812 15.8635Z"
          fill="white" stroke="#98A9BC" stroke-width="2" stroke-miterlimit="10"/>
    <path d="M32.812 15.8635H55.9035C56.2456 15.8635 56.5021 15.5751 56.5307 15.229C56.5592 14.854 56.2741 14.5656 55.9035 14.5367H32.755C32.7265 14.5367 32.7265 14.5367 32.698 14.5367C32.3274 14.5656 32.0708 14.8829 32.0993 15.2578C32.1278 15.6039 32.4414 15.8924 32.812 15.8635Z"
          fill="#98A9BC" stroke="#98A9BC" stroke-width="2" stroke-miterlimit="10"/>
    <path d="M62.8024 22.8438H32.755C32.7265 22.8438 32.7265 22.8438 32.698 22.8438C32.3274 22.8726 32.0708 23.1899 32.0993 23.5648C32.1278 23.9398 32.4414 24.1994 32.812 24.1705H62.8024C63.1445 24.1417 63.401 23.8821 63.4296 23.536C63.4296 23.161 63.1445 22.8438 62.8024 22.8438Z"
          fill="white" stroke="#98A9BC" stroke-width="2" stroke-miterlimit="10"/>
    <path d="M62.8024 22.8438H32.755C32.7265 22.8438 32.7265 22.8438 32.698 22.8438C32.3274 22.8726 32.0708 23.1899 32.0993 23.5648C32.1278 23.9398 32.4414 24.1994 32.812 24.1705H62.8024C63.1445 24.1417 63.401 23.8821 63.4296 23.536C63.4296 23.161 63.1445 22.8438 62.8024 22.8438Z"
          fill="#98A9BC" stroke="#98A9BC" stroke-width="2" stroke-miterlimit="10"/>
    <path d="M32.812 32.4483H62.8024C63.1445 32.4195 63.4011 32.1599 63.4011 31.8426C63.4296 31.4677 63.1445 31.1792 62.8024 31.1504H32.755C32.7265 31.1504 32.7265 31.1504 32.698 31.1504C32.3274 31.1792 32.0708 31.4965 32.0993 31.8715C32.1278 32.2176 32.4414 32.4772 32.812 32.4483Z"
          fill="white" stroke="#98A9BC" stroke-width="2" stroke-miterlimit="10"/>
    <path d="M32.812 32.4483H62.8024C63.1445 32.4195 63.4011 32.1599 63.4011 31.8426C63.4296 31.4677 63.1445 31.1792 62.8024 31.1504H32.755C32.7265 31.1504 32.7265 31.1504 32.698 31.1504C32.3274 31.1792 32.0708 31.4965 32.0993 31.8715C32.1278 32.2176 32.4414 32.4772 32.812 32.4483Z"
          fill="#98A9BC" stroke="#98A9BC" stroke-width="2" stroke-miterlimit="10"/>
    <path d="M32.812 40.7551H62.8024C63.1445 40.7262 63.4011 40.4667 63.4011 40.1494C63.4296 39.7744 63.1445 39.486 62.8024 39.4572H32.755C32.7265 39.4572 32.7265 39.4572 32.698 39.4572C32.3274 39.486 32.0708 39.8033 32.0993 40.1782C32.1278 40.4955 32.4414 40.7839 32.812 40.7551Z"
          fill="white" stroke="#98A9BC" stroke-width="2" stroke-miterlimit="10"/>
    <path d="M32.812 40.7551H62.8024C63.1445 40.7262 63.4011 40.4667 63.4011 40.1494C63.4296 39.7744 63.1445 39.486 62.8024 39.4572H32.755C32.7265 39.4572 32.7265 39.4572 32.698 39.4572C32.3274 39.486 32.0708 39.8033 32.0993 40.1782C32.1278 40.4955 32.4414 40.7839 32.812 40.7551Z"
          fill="#98A9BC" stroke="#98A9BC" stroke-width="2" stroke-miterlimit="10"/>
    <path d="M32.7549 47.7061C32.4128 47.7349 32.1562 48.0233 32.1562 48.3694C32.1562 48.7444 32.4413 49.0328 32.8119 49.0328H62.8023C63.1444 49.004 63.401 48.7444 63.401 48.4271C63.4295 48.0522 63.1444 47.7637 62.8023 47.7349H32.7549V47.7061Z"
          fill="white" stroke="#98A9BC" stroke-width="2" stroke-miterlimit="10"/>
    <path d="M32.7549 47.7061C32.4128 47.7349 32.1562 48.0233 32.1562 48.3694C32.1562 48.7444 32.4413 49.0328 32.8119 49.0328H62.8023C63.1444 49.004 63.401 48.7444 63.401 48.4271C63.4295 48.0522 63.1444 47.7637 62.8023 47.7349H32.7549V47.7061Z"
          fill="#98A9BC" stroke="#98A9BC" stroke-width="2" stroke-miterlimit="10"/>
    <path d="M62.8024 56.0132H32.755C32.7265 56.0132 32.7265 56.0132 32.698 56.0132C32.3274 56.042 32.0708 56.3593 32.0993 56.7343C32.1278 57.1092 32.4414 57.3688 32.812 57.34H62.8024C63.1445 57.3111 63.401 57.0515 63.4296 56.7054C63.4296 56.3593 63.1445 56.042 62.8024 56.0132Z"
          fill="white" stroke="#98A9BC" stroke-width="2" stroke-miterlimit="10"/>
    <path d="M62.8024 56.0132H32.755C32.7265 56.0132 32.7265 56.0132 32.698 56.0132C32.3274 56.042 32.0708 56.3593 32.0993 56.7343C32.1278 57.1092 32.4414 57.3688 32.812 57.34H62.8024C63.1445 57.3111 63.401 57.0515 63.4296 56.7054C63.4296 56.3593 63.1445 56.042 62.8024 56.0132Z"
          fill="#98A9BC" stroke="#98A9BC" stroke-width="2" stroke-miterlimit="10"/>
    <path d="M66.0815 70.9826L55.6191 21.7188C55.562 21.9784 55.334 22.2091 55.0774 22.2668L65.4543 71.1557C65.9674 73.5208 64.485 75.8283 62.1474 76.3474L20.5543 85.3464C18.2166 85.8656 15.936 84.3658 15.4228 82.0006L3.1074 23.9397C2.59425 21.5746 4.07667 19.2671 6.41432 18.7479L39.9682 11.4507C39.9112 11.2776 39.9682 11.1046 40.0537 10.9603C40.2533 10.6719 40.6524 10.5854 40.9375 10.7873L55.0489 19.9882C55.1629 20.0747 55.277 20.2189 55.3055 20.3632C55.2485 20.2189 55.1629 20.0747 55.0204 19.9882L40.9375 10.7873C40.7949 10.7008 40.6239 10.6719 40.4528 10.7008L6.30029 18.1134C3.62054 18.6903 1.91006 21.3438 2.48022 24.0839L14.7957 82.1449C15.3658 84.8561 18.0171 86.5579 20.6968 85.981L62.2614 76.9531C64.9412 76.3763 66.6516 73.6939 66.0815 70.9826Z"
          fill="url(#paint10_linear)" stroke="#98A9BC" stroke-width="2" stroke-miterlimit="10"/>
    <path d="M64.7989 71.271C65.2265 73.29 63.9722 75.2514 61.9766 75.684L20.412 84.683C18.445 85.1157 16.4779 83.8466 16.0503 81.8276L3.73487 23.7955C3.30725 21.8053 4.5616 19.8151 6.55715 19.3825L40.111 12.114L39.9685 11.4795L6.44312 18.7479C4.10547 19.2671 2.62306 21.5745 3.1362 23.9397L15.4516 82.0006C15.9648 84.3658 18.2454 85.8656 20.5831 85.3464L62.1477 76.3186C64.4853 75.7994 65.9678 73.4919 65.4546 71.1268L55.0777 22.2379L54.422 22.3821L64.7989 71.271Z"
          fill="white" stroke="#98A9BC" stroke-width="2" stroke-miterlimit="10"/>
    <path d="M64.7989 71.271C65.2265 73.29 63.9722 75.2514 61.9766 75.684L20.412 84.683C18.445 85.1157 16.4779 83.8466 16.0503 81.8276L3.73487 23.7955C3.30725 21.8053 4.5616 19.8151 6.55715 19.3825L40.111 12.114L39.9685 11.4795L6.44312 18.7479C4.10547 19.2671 2.62306 21.5745 3.1362 23.9397L15.4516 82.0006C15.9648 84.3658 18.2454 85.8656 20.5831 85.3464L62.1477 76.3186C64.4853 75.7994 65.9678 73.4919 65.4546 71.1268L55.0777 22.2379L54.422 22.3821L64.7989 71.271Z"
          fill="url(#paint11_linear)" stroke="#98A9BC" stroke-width="2" stroke-miterlimit="10"/>
    <path d="M55.3626 20.4209C55.4481 20.767 55.22 21.1132 54.8779 21.1997L46.4396 23.0456C44.33 23.5071 42.2774 22.1515 41.8213 20.0171L40.1108 12.1141L6.55694 19.3826C4.58989 19.8152 3.30703 21.7765 3.73465 23.7956L16.0501 81.8565C16.4777 83.8467 18.4162 85.1446 20.4118 84.712L61.9764 75.6841C63.972 75.2515 65.2263 73.2902 64.7987 71.2712L54.4218 22.3822L55.0775 22.238C55.3341 22.1803 55.5621 21.9784 55.6191 21.69L55.3626 20.4209C55.3341 20.3921 55.3626 20.4209 55.3626 20.4209ZM15.2519 30.2275C14.9098 30.3141 14.5392 30.1122 14.4536 29.7661C14.3681 29.4199 14.5677 29.045 14.9098 28.9585H14.9668L37.5451 24.0551C37.8872 23.9975 38.2293 24.2282 38.2863 24.6032C38.3433 24.9493 38.1438 25.2666 37.8017 25.3531L15.2519 30.2275ZM16.9908 38.3324C16.6488 38.419 16.2782 38.2171 16.1926 37.8709C16.1071 37.5248 16.3067 37.1499 16.6488 37.0633H16.7058L46.0405 30.689C46.3826 30.6313 46.7247 30.8621 46.7817 31.2371C46.8387 31.5832 46.6391 31.9004 46.297 31.987L16.9908 38.3324ZM17.9031 45.9758C17.8176 45.6297 18.0171 45.2548 18.3592 45.1682H18.4162L47.7509 38.7939C48.093 38.7362 48.4351 38.9958 48.4921 39.3419C48.5492 39.6592 48.3496 39.9765 48.0075 40.0919L18.7013 46.4373C18.3592 46.5527 18.0171 46.3219 17.9031 45.9758ZM19.6421 54.0807C19.5566 53.7346 19.7561 53.3596 20.0982 53.2731H20.1552L49.4899 46.8988C49.832 46.8411 50.1741 47.1007 50.2311 47.4468C50.2881 47.7641 50.0886 48.0814 49.7465 48.1967L20.4403 54.5422C20.0697 54.6576 19.7276 54.4268 19.6421 54.0807ZM21.3241 62.2144C21.21 61.8683 21.4096 61.4934 21.7517 61.378C21.7802 61.378 21.7802 61.378 21.8087 61.378H21.8657L51.2004 55.0037C51.5425 54.946 51.8846 55.2056 51.9416 55.5517C51.9986 55.869 51.7991 56.1863 51.457 56.3016L22.1508 62.6759C21.8087 62.7625 21.4381 62.5894 21.3241 62.2144ZM53.196 64.4065L23.8613 70.7808C23.5192 70.8674 23.1486 70.6655 23.063 70.3193C22.9775 69.9732 23.1771 69.5983 23.5192 69.5117H23.5762L52.9109 63.1374C53.253 63.0797 53.5951 63.3105 53.6521 63.6854C53.7376 64.0027 53.5381 64.32 53.196 64.4065Z"
          fill="white"/>
    <path d="M55.3626 20.4209C55.4481 20.767 55.22 21.1132 54.8779 21.1997L46.4396 23.0456C44.33 23.5071 42.2774 22.1515 41.8213 20.0171L40.1108 12.1141L6.55694 19.3826C4.58989 19.8152 3.30703 21.7765 3.73465 23.7956L16.0501 81.8565C16.4777 83.8467 18.4162 85.1446 20.4118 84.712L61.9764 75.6841C63.972 75.2515 65.2263 73.2902 64.7987 71.2712L54.4218 22.3822L55.0775 22.238C55.3341 22.1803 55.5621 21.9784 55.6191 21.69L55.3626 20.4209ZM55.3626 20.4209C55.3341 20.3921 55.3626 20.4209 55.3626 20.4209ZM15.2519 30.2275C14.9098 30.3141 14.5392 30.1122 14.4536 29.7661C14.3681 29.4199 14.5677 29.045 14.9098 28.9585H14.9668L37.5451 24.0551C37.8872 23.9975 38.2293 24.2282 38.2863 24.6032C38.3433 24.9493 38.1438 25.2665 37.8017 25.3531L15.2519 30.2275ZM16.9908 38.3324C16.6488 38.419 16.2782 38.2171 16.1926 37.8709C16.1071 37.5248 16.3067 37.1499 16.6488 37.0633H16.7058L46.0405 30.689C46.3826 30.6314 46.7247 30.8621 46.7817 31.2371C46.8387 31.5832 46.6391 31.9004 46.297 31.987L16.9908 38.3324ZM17.9031 45.9758C17.8176 45.6297 18.0171 45.2548 18.3592 45.1682H18.4162L47.7509 38.7939C48.093 38.7362 48.4351 38.9958 48.4921 39.3419C48.5492 39.6592 48.3496 39.9765 48.0075 40.0919L18.7013 46.4373C18.3592 46.5527 18.0171 46.3219 17.9031 45.9758ZM19.6421 54.0807C19.5566 53.7346 19.7561 53.3596 20.0982 53.2731H20.1552L49.4899 46.8988C49.832 46.8411 50.1741 47.1007 50.2311 47.4468C50.2881 47.7641 50.0886 48.0814 49.7465 48.1967L20.4403 54.5422C20.0697 54.6576 19.7276 54.4268 19.6421 54.0807ZM21.3241 62.2144C21.21 61.8683 21.4096 61.4934 21.7517 61.378C21.7802 61.378 21.7802 61.378 21.8087 61.378H21.8657L51.2004 55.0037C51.5425 54.946 51.8846 55.2056 51.9416 55.5517C51.9986 55.869 51.7991 56.1863 51.457 56.3016L22.1508 62.6759C21.8087 62.7625 21.4381 62.5894 21.3241 62.2144ZM53.196 64.4065L23.8613 70.7808C23.5192 70.8674 23.1486 70.6655 23.063 70.3193C22.9775 69.9732 23.1771 69.5983 23.5192 69.5117H23.5762L52.9109 63.1374C53.253 63.0797 53.5951 63.3105 53.6521 63.6854C53.7376 64.0027 53.5381 64.32 53.196 64.4065Z"
          stroke="#98A9BC" stroke-width="2" stroke-miterlimit="10"/>
    <path d="M43.0472 19.7287C43.3322 21.142 44.7291 22.0361 46.126 21.7477L53.0535 20.2478L41.5933 12.7487L43.0472 19.7287Z"
          fill="white" stroke="#98A9BC" stroke-width="2" stroke-miterlimit="10"/>
    <path d="M55.334 20.392C55.334 20.3632 55.334 20.3632 55.334 20.3344C55.334 20.3632 55.334 20.392 55.334 20.392Z"
          fill="url(#paint12_linear)" stroke="#98A9BC" stroke-width="2" stroke-miterlimit="10"/>
    <path d="M55.0485 19.9882L40.937 10.7873C40.652 10.5854 40.2529 10.6719 40.0533 10.9603C39.9678 11.1046 39.9108 11.2776 39.9678 11.4507L40.5949 11.3065L43.9874 13.5274L55.3336 20.392V20.3632C55.2765 20.2189 55.191 20.0747 55.0485 19.9882Z"
          fill="url(#paint13_linear)" stroke="#98A9BC" stroke-width="2" stroke-miterlimit="10"/>
    <path d="M55.0485 19.9882L40.937 10.7873C40.652 10.5854 40.2529 10.6719 40.0533 10.9603C39.9678 11.1046 39.9108 11.2776 39.9678 11.4507L40.5949 11.3065L43.9874 13.5274L55.3336 20.392V20.3632C55.2765 20.2189 55.191 20.0747 55.0485 19.9882Z"
          fill="url(#paint14_linear)" stroke="#98A9BC" stroke-width="2" stroke-miterlimit="10"/>
    <path d="M40.2822 12.0563C40.2822 12.0563 40.2821 12.0274 40.3107 12.0274C40.3962 11.8832 40.5387 11.7967 40.7098 11.739L40.6242 11.3352L39.9971 11.4794L40.1396 12.114L40.2822 12.0563Z"
          fill="white" stroke="#98A9BC" stroke-width="2" stroke-miterlimit="10"/>
    <path d="M40.2822 12.0563C40.2822 12.0563 40.2821 12.0274 40.3107 12.0274C40.3962 11.8832 40.5387 11.7967 40.7098 11.739L40.6242 11.3352L39.9971 11.4794L40.1396 12.114L40.2822 12.0563Z"
          fill="url(#paint15_linear)" stroke="#98A9BC" stroke-width="2" stroke-miterlimit="10"/>
    <path d="M40.2822 12.0563C40.2822 12.0563 40.2821 12.0274 40.3107 12.0274C40.3962 11.8832 40.5387 11.7967 40.7098 11.739L40.6242 11.3352L39.9971 11.4794L40.1396 12.114L40.2822 12.0563Z"
          fill="url(#paint16_linear)" stroke="#98A9BC" stroke-width="2" stroke-miterlimit="10"/>
    <path d="M55.3346 20.3922L43.9884 13.5276L40.596 11.3066L40.6815 11.7104C40.5104 11.7393 40.3679 11.8547 40.2824 11.9989C40.2824 11.9989 40.2824 12.0277 40.2539 12.0277L40.1113 12.0566L41.7933 19.9595C42.2494 22.0939 44.302 23.4207 46.4116 22.9881L54.8499 21.1421C55.192 21.1133 55.4201 20.7671 55.3346 20.3922C55.3631 20.421 55.3631 20.421 55.3346 20.3922C55.3631 20.421 55.3346 20.3922 55.3346 20.3922ZM46.1265 21.7478C44.7296 22.0362 43.3612 21.1421 43.0476 19.7288L41.5652 12.7488L53.0254 20.248L46.1265 21.7478Z"
          fill="white"/>
    <path d="M55.3346 20.3922L43.9884 13.5276L40.596 11.3066L40.6815 11.7104C40.5104 11.7393 40.3679 11.8547 40.2824 11.9989C40.2824 11.9989 40.2824 12.0277 40.2539 12.0277L40.1113 12.0566L41.7933 19.9595C42.2494 22.0939 44.302 23.4207 46.4116 22.9881L54.8499 21.1421C55.192 21.1133 55.4201 20.7671 55.3346 20.3922ZM55.3346 20.3922C55.3631 20.421 55.3631 20.421 55.3346 20.3922ZM55.3346 20.3922C55.3631 20.421 55.3346 20.3922 55.3346 20.3922ZM46.1265 21.7478C44.7296 22.0362 43.3612 21.1421 43.0476 19.7288L41.5652 12.7488L53.0254 20.248L46.1265 21.7478Z"
          stroke="#98A9BC" stroke-width="2" stroke-miterlimit="10"/>
    <path d="M55.3346 20.3922L43.9884 13.5276L40.596 11.3066L40.6815 11.7104C40.5104 11.7393 40.3679 11.8547 40.2824 11.9989C40.2824 11.9989 40.2824 12.0277 40.2539 12.0277L40.1113 12.0566L41.7933 19.9595C42.2494 22.0939 44.302 23.4207 46.4116 22.9881L54.8499 21.1421C55.192 21.1133 55.4201 20.7671 55.3346 20.3922C55.3631 20.421 55.3631 20.421 55.3346 20.3922C55.3631 20.421 55.3346 20.3922 55.3346 20.3922ZM46.1265 21.7478C44.7296 22.0362 43.3612 21.1421 43.0476 19.7288L41.5652 12.7488L53.0254 20.248L46.1265 21.7478Z"
          fill="#98A9BC"/>
    <path d="M55.3346 20.3922L43.9884 13.5276L40.596 11.3066L40.6815 11.7104C40.5104 11.7393 40.3679 11.8547 40.2824 11.9989C40.2824 11.9989 40.2824 12.0277 40.2539 12.0277L40.1113 12.0566L41.7933 19.9595C42.2494 22.0939 44.302 23.4207 46.4116 22.9881L54.8499 21.1421C55.192 21.1133 55.4201 20.7671 55.3346 20.3922ZM55.3346 20.3922C55.3631 20.421 55.3631 20.421 55.3346 20.3922ZM55.3346 20.3922C55.3631 20.421 55.3346 20.3922 55.3346 20.3922ZM46.1265 21.7478C44.7296 22.0362 43.3612 21.1421 43.0476 19.7288L41.5652 12.7488L53.0254 20.248L46.1265 21.7478Z"
          stroke="#98A9BC" stroke-width="2" stroke-miterlimit="10"/>
    <path d="M38.315 24.5741C38.2579 24.228 37.9158 23.9684 37.5737 24.0261L14.9954 28.9294H14.9384C14.5963 29.016 14.3683 29.3909 14.4823 29.737C14.5963 30.0831 14.9384 30.3139 15.2805 30.1985L37.8588 25.2952C38.1724 25.2375 38.372 24.8914 38.315 24.5741Z"
          fill="white" stroke="#98A9BC" stroke-width="2" stroke-miterlimit="10"/>
    <path d="M38.315 24.5741C38.2579 24.228 37.9158 23.9684 37.5737 24.0261L14.9954 28.9294H14.9384C14.5963 29.016 14.3683 29.3909 14.4823 29.737C14.5963 30.0831 14.9384 30.3139 15.2805 30.1985L37.8588 25.2952C38.1724 25.2375 38.372 24.8914 38.315 24.5741Z"
          fill="#98A9BC" stroke="#98A9BC" stroke-width="2" stroke-miterlimit="10"/>
    <path d="M46.8103 31.2079C46.7533 30.8618 46.4112 30.6022 46.0691 30.6599L16.7059 37.0342H16.6489C16.3068 37.1207 16.0787 37.4957 16.1927 37.8418C16.3068 38.1879 16.6489 38.4187 16.991 38.3033L46.3257 31.929C46.6393 31.8713 46.8388 31.554 46.8103 31.2079Z"
          fill="white" stroke="#98A9BC" stroke-width="2" stroke-miterlimit="10"/>
    <path d="M46.8103 31.2079C46.7533 30.8618 46.4112 30.6022 46.0691 30.6599L16.7059 37.0342H16.6489C16.3068 37.1207 16.0787 37.4957 16.1927 37.8418C16.3068 38.1879 16.6489 38.4187 16.991 38.3033L46.3257 31.929C46.6393 31.8713 46.8388 31.554 46.8103 31.2079Z"
          fill="#98A9BC" stroke="#98A9BC" stroke-width="2" stroke-miterlimit="10"/>
    <path d="M48.5206 39.3418C48.4636 38.9957 48.1215 38.7361 47.7794 38.7938L18.4447 45.1681H18.3876C18.0455 45.2547 17.8175 45.6296 17.9315 45.9757C18.0456 46.3218 18.3876 46.5526 18.7297 46.4372L48.0644 40.0629C48.3495 39.9764 48.5491 39.6591 48.5206 39.3418Z"
          fill="white" stroke="#98A9BC" stroke-width="2" stroke-miterlimit="10"/>
    <path d="M48.5206 39.3418C48.4636 38.9957 48.1215 38.7361 47.7794 38.7938L18.4447 45.1681H18.3876C18.0455 45.2547 17.8175 45.6296 17.9315 45.9757C18.0456 46.3218 18.3876 46.5526 18.7297 46.4372L48.0644 40.0629C48.3495 39.9764 48.5491 39.6591 48.5206 39.3418Z"
          fill="#98A9BC" stroke="#98A9BC" stroke-width="2" stroke-miterlimit="10"/>
    <path d="M50.231 47.4466C50.174 47.1005 49.8319 46.8409 49.4898 46.8986L20.1551 53.2729H20.0981C19.756 53.3594 19.5279 53.7343 19.642 54.0805C19.756 54.4266 20.0981 54.6573 20.4402 54.5419L49.7749 48.1676C50.0885 48.11 50.288 47.7927 50.231 47.4466Z"
          fill="white" stroke="#98A9BC" stroke-width="2" stroke-miterlimit="10"/>
    <path d="M50.231 47.4466C50.174 47.1005 49.8319 46.8409 49.4898 46.8986L20.1551 53.2729H20.0981C19.756 53.3594 19.5279 53.7343 19.642 54.0805C19.756 54.4266 20.0981 54.6573 20.4402 54.5419L49.7749 48.1676C50.0885 48.11 50.288 47.7927 50.231 47.4466Z"
          fill="#98A9BC" stroke="#98A9BC" stroke-width="2" stroke-miterlimit="10"/>
    <path d="M51.4851 56.3015C51.7987 56.2149 51.9983 55.8977 51.9698 55.5516C51.9128 55.2054 51.5707 54.9458 51.2286 55.0035L21.8654 61.3778H21.8084C21.7798 61.3778 21.7798 61.3778 21.7513 61.3778C21.4092 61.4932 21.2097 61.8682 21.3237 62.2143C21.4377 62.5604 21.8084 62.7623 22.1504 62.6469L51.4851 56.3015Z"
          fill="white" stroke="#98A9BC" stroke-width="2" stroke-miterlimit="10"/>
    <path d="M51.4851 56.3015C51.7987 56.2149 51.9983 55.8977 51.9698 55.5516C51.9128 55.2054 51.5707 54.9458 51.2286 55.0035L21.8654 61.3778H21.8084C21.7798 61.3778 21.7798 61.3778 21.7513 61.3778C21.4092 61.4932 21.2097 61.8682 21.3237 62.2143C21.4377 62.5604 21.8084 62.7623 22.1504 62.6469L51.4851 56.3015Z"
          fill="#98A9BC" stroke="#98A9BC" stroke-width="2" stroke-miterlimit="10"/>
    <path d="M52.939 63.1373L23.6043 69.4828H23.5473C23.2052 69.5693 22.9772 69.9442 23.0912 70.2904C23.2052 70.6365 23.5473 70.8672 23.8894 70.7518L53.2241 64.3775C53.5377 64.291 53.7372 63.9737 53.7087 63.6276C53.6232 63.3103 53.2811 63.0796 52.939 63.1373Z"
          fill="white" stroke="#98A9BC" stroke-width="2" stroke-miterlimit="10"/>
    <path d="M52.939 63.1373L23.6043 69.4828H23.5473C23.2052 69.5693 22.9772 69.9442 23.0912 70.2904C23.2052 70.6365 23.5473 70.8672 23.8894 70.7518L53.2241 64.3775C53.5377 64.291 53.7372 63.9737 53.7087 63.6276C53.6232 63.3103 53.2811 63.0796 52.939 63.1373Z"
          fill="#98A9BC" stroke="#98A9BC" stroke-width="2" stroke-miterlimit="10"/>
    <defs>
        <linearGradient id="paint0_linear" x1="21.5643" y1="14.4643" x2="74.0159" y2="14.4643"
                        gradientUnits="userSpaceOnUse">
            <stop offset="0.4" stop-color="#4DB05B"/>
            <stop offset="1" stop-color="#1DBADF"/>
        </linearGradient>
        <linearGradient id="paint1_linear" x1="21.5787" y1="14.3683" x2="74.0162" y2="14.3683"
                        gradientUnits="userSpaceOnUse">
            <stop offset="0.4" stop-color="#4DB05B"/>
            <stop offset="1" stop-color="#1DBADF"/>
        </linearGradient>
        <linearGradient id="paint2_linear" x1="21.5703" y1="36.8141" x2="74.0161" y2="36.8141"
                        gradientUnits="userSpaceOnUse">
            <stop offset="0.4" stop-color="#4DB05B"/>
            <stop offset="1" stop-color="#1DBADF"/>
        </linearGradient>
        <linearGradient id="paint3_linear" x1="60.8593" y1="14.6403" x2="74.0277" y2="14.6403"
                        gradientUnits="userSpaceOnUse">
            <stop offset="0.4" stop-color="#4DB05B"/>
            <stop offset="1" stop-color="#1DBADF"/>
        </linearGradient>
        <linearGradient id="paint4_linear" x1="-nan" y1="-nan" x2="-nan" y2="-nan" gradientUnits="userSpaceOnUse">
            <stop offset="0.4" stop-color="#4DB05B"/>
            <stop offset="1" stop-color="#1DBADF"/>
        </linearGradient>
        <linearGradient id="paint5_linear" x1="60.8561" y1="14.3106" x2="74.028" y2="14.3106"
                        gradientUnits="userSpaceOnUse">
            <stop offset="0.4" stop-color="#4DB05B"/>
            <stop offset="1" stop-color="#1DBADF"/>
        </linearGradient>
        <linearGradient id="paint6_linear" x1="21.5705" y1="8.43697" x2="74.0164" y2="8.43697"
                        gradientUnits="userSpaceOnUse">
            <stop offset="0.4" stop-color="#4DB05B"/>
            <stop offset="1" stop-color="#1DBADF"/>
        </linearGradient>
        <linearGradient id="paint7_linear" x1="60.8609" y1="8.43697" x2="74.0163" y2="8.43697"
                        gradientUnits="userSpaceOnUse">
            <stop offset="0.4" stop-color="#4DB05B"/>
            <stop offset="1" stop-color="#1DBADF"/>
        </linearGradient>
        <linearGradient id="paint8_linear" x1="21.5706" y1="3.09167" x2="74.0163" y2="3.09167"
                        gradientUnits="userSpaceOnUse">
            <stop offset="0.4" stop-color="#4DB05B"/>
            <stop offset="1" stop-color="#1DBADF"/>
        </linearGradient>
        <linearGradient id="paint9_linear" x1="60.8609" y1="3.09167" x2="74.0279" y2="3.09167"
                        gradientUnits="userSpaceOnUse">
            <stop offset="0.4" stop-color="#4DB05B"/>
            <stop offset="1" stop-color="#1DBADF"/>
        </linearGradient>
        <linearGradient id="paint10_linear" x1="8.62942" y1="53.0994" x2="59.9662" y2="42.2009"
                        gradientUnits="userSpaceOnUse">
            <stop offset="0.4" stop-color="#4DB05B"/>
            <stop offset="1" stop-color="#1DBADF"/>
        </linearGradient>
        <linearGradient id="paint11_linear" x1="8.63088" y1="53.1049" x2="59.968" y2="42.2063"
                        gradientUnits="userSpaceOnUse">
            <stop offset="0.4" stop-color="#4DB05B"/>
            <stop offset="1" stop-color="#1DBADF"/>
        </linearGradient>
        <linearGradient id="paint12_linear" x1="-nan" y1="-nan" x2="-nan" y2="-nan" gradientUnits="userSpaceOnUse">
            <stop offset="0.4" stop-color="#4DB05B"/>
            <stop offset="1" stop-color="#1DBADF"/>
        </linearGradient>
        <linearGradient id="paint13_linear" x1="2.73877" y1="25.3539" x2="54.0758" y2="14.4553"
                        gradientUnits="userSpaceOnUse">
            <stop offset="0.4" stop-color="#4DB05B"/>
            <stop offset="1" stop-color="#1DBADF"/>
        </linearGradient>
        <linearGradient id="paint14_linear" x1="41.1562" y1="17.0052" x2="54.0367" y2="14.2708"
                        gradientUnits="userSpaceOnUse">
            <stop offset="0.4" stop-color="#4DB05B"/>
            <stop offset="1" stop-color="#1DBADF"/>
        </linearGradient>
        <linearGradient id="paint15_linear" x1="1.63051" y1="20.13" x2="52.9677" y2="9.23154"
                        gradientUnits="userSpaceOnUse">
            <stop offset="0.4" stop-color="#4DB05B"/>
            <stop offset="1" stop-color="#1DBADF"/>
        </linearGradient>
        <linearGradient id="paint16_linear" x1="40.048" y1="11.7813" x2="52.9319" y2="9.0461"
                        gradientUnits="userSpaceOnUse">
            <stop offset="0.4" stop-color="#4DB05B"/>
            <stop offset="1" stop-color="#1DBADF"/>
        </linearGradient>
    </defs>
</svg>
